foobar2000 1.5 / Dynamic Range Meter 1.1.1
log date: 2021-02-08 15:02:15

--------------------------------------------------------------------------------
Analyzed: ? / ?
--------------------------------------------------------------------------------

DR         Peak         RMS     Duration Track
--------------------------------------------------------------------------------
DR6       -4.10 dB   -12.69 dB      7:11 ?-1 Track 01
DR7       -3.84 dB   -12.62 dB      7:44 ?-2 Track 02
DR7       -3.86 dB   -13.25 dB      6:07 ?-3 Track 03
DR7       -3.45 dB   -13.11 dB      7:47 ?-4 Track 04
DR7       -3.75 dB   -13.73 dB      5:52 ?-5 Track 05
DR7       -3.92 dB   -13.72 dB     18:19 ?-6 Track 06
DR7       -4.57 dB   -12.89 dB      3:00 ?-7 Track 07
DR8       -0.01 dB   -13.07 dB      8:24 ?-8 Track 08
--------------------------------------------------------------------------------

Number of tracks:  8
Official DR value: DR7

Samplerate:        44100 Hz
Channels:          2
Bits per sample:   16
Bitrate:           1411 kbps
Codec:             PCM
================================================================================

